<svg width="120" height="77" viewBox="0 0 120 77" fill="none" xmlns="http://www.w3.org/2000/svg">
<path d="M110 60.9583C110 62.6601 108.946 64.2922 107.071 65.4956C105.196 66.699 102.652 67.375 100 67.375H20C17.3478 67.375 14.8043 66.699 12.9289 65.4956C11.0536 64.2922 10 62.6601 10 60.9583V16.0417C10 14.3399 11.0536 12.7078 12.9289 11.5044C14.8043 10.301 17.3478 9.625 20 9.625H45L55 19.25H100C102.652 19.25 105.196 19.926 107.071 21.1294C108.946 22.3328 110 23.9649 110 25.6667V60.9583Z" stroke="black" stroke-width="2" stroke-linecap="round" stroke-linejoin="round"/>
<path d="M60 35.2916V54.5416" stroke="black" stroke-width="2" stroke-linecap="round" stroke-linejoin="round"/>
<path d="M45 44.9166H75" stroke="black" stroke-width="2" stroke-linecap="round" stroke-linejoin="round"/>
</svg>
