<svg width="3" height="23" viewBox="0 0 3 23" fill="none" xmlns="http://www.w3.org/2000/svg">
<path d="M1.25 2.09091C1.0303 2.09091 0.841856 2.0142 0.684659 1.8608C0.529356 1.70549 0.452652 1.51705 0.454545 1.29545C0.452652 1.07955 0.529356 0.894886 0.684659 0.741477C0.841856 0.588068 1.0303 0.511364 1.25 0.511364C1.45833 0.511364 1.64205 0.588068 1.80114 0.741477C1.96212 0.894886 2.04356 1.07955 2.04545 1.29545C2.04356 1.44318 2.00473 1.57765 1.92898 1.69886C1.85511 1.81818 1.75852 1.91383 1.6392 1.9858C1.51989 2.05587 1.39015 2.09091 1.25 2.09091ZM1.25 12.0909C1.0303 12.0909 0.841856 12.0142 0.684659 11.8608C0.529356 11.7055 0.452652 11.517 0.454545 11.2955C0.452652 11.0795 0.529356 10.8949 0.684659 10.7415C0.841856 10.5881 1.0303 10.5114 1.25 10.5114C1.45833 10.5114 1.64205 10.5881 1.80114 10.7415C1.96212 10.8949 2.04356 11.0795 2.04545 11.2955C2.04356 11.4432 2.00473 11.5777 1.92898 11.6989C1.85511 11.8182 1.75852 11.9138 1.6392 11.9858C1.51989 12.0559 1.39015 12.0909 1.25 12.0909ZM1.25 22.0909C1.0303 22.0909 0.841856 22.0142 0.684659 21.8608C0.529356 21.7055 0.452652 21.517 0.454545 21.2955C0.452652 21.0795 0.529356 20.8949 0.684659 20.7415C0.841856 20.5881 1.0303 20.5114 1.25 20.5114C1.45833 20.5114 1.64205 20.5881 1.80114 20.7415C1.96212 20.8949 2.04356 21.0795 2.04545 21.2955C2.04356 21.4432 2.00473 21.5777 1.92898 21.6989C1.85511 21.8182 1.75852 21.9138 1.6392 21.9858C1.51989 22.0559 1.39015 22.0909 1.25 22.0909Z" fill="black"/>
</svg>
