<svg width="170" height="71" viewBox="0 0 170 71" fill="none" xmlns="http://www.w3.org/2000/svg">
<rect width="170" height="71" rx="35.5" fill="#0038A8" fill-opacity="0.15"/>
<path d="M85.9858 31.5653C85.9176 30.8778 85.625 30.3437 85.108 29.9631C84.5909 29.5824 83.8892 29.392 83.0028 29.392C82.4006 29.392 81.892 29.4773 81.4773 29.6477C81.0625 29.8125 80.7443 30.0426 80.5227 30.3381C80.3068 30.6335 80.1989 30.9688 80.1989 31.3438C80.1875 31.6562 80.2528 31.929 80.3949 32.1619C80.5426 32.3949 80.7443 32.5966 81 32.767C81.2557 32.9318 81.5511 33.0767 81.8864 33.2017C82.2216 33.321 82.5795 33.4233 82.9602 33.5085L84.5284 33.8835C85.2898 34.054 85.9886 34.2812 86.625 34.5653C87.2614 34.8494 87.8125 35.1989 88.2784 35.6136C88.7443 36.0284 89.1051 36.517 89.3608 37.0795C89.6222 37.642 89.7557 38.2869 89.7614 39.0142C89.7557 40.0824 89.483 41.0085 88.9432 41.7926C88.4091 42.571 87.6364 43.1761 86.625 43.608C85.6193 44.0341 84.4063 44.2472 82.9858 44.2472C81.5767 44.2472 80.3494 44.0312 79.304 43.5994C78.2642 43.1676 77.4517 42.5284 76.8665 41.6818C76.2869 40.8295 75.983 39.7756 75.9545 38.5199H79.5256C79.5653 39.1051 79.733 39.5937 80.0284 39.9858C80.3295 40.3722 80.7301 40.6648 81.2301 40.8636C81.7358 41.0568 82.3068 41.1534 82.9432 41.1534C83.5682 41.1534 84.1108 41.0625 84.571 40.8807C85.0369 40.6989 85.3977 40.446 85.6534 40.1222C85.9091 39.7983 86.0369 39.4261 86.0369 39.0057C86.0369 38.6136 85.9205 38.2841 85.6875 38.017C85.4602 37.75 85.125 37.5227 84.6818 37.3352C84.2443 37.1477 83.7074 36.9773 83.071 36.8239L81.1705 36.3466C79.6989 35.9886 78.5369 35.429 77.6847 34.6676C76.8324 33.9062 76.4091 32.8807 76.4148 31.5909C76.4091 30.5341 76.6903 29.6108 77.2585 28.821C77.8324 28.0312 78.6193 27.4148 79.6193 26.9716C80.6193 26.5284 81.7557 26.3068 83.0284 26.3068C84.3239 26.3068 85.4545 26.5284 86.4205 26.9716C87.392 27.4148 88.1477 28.0312 88.6875 28.821C89.2273 29.6108 89.5057 30.5256 89.5227 31.5653H85.9858ZM99.1385 30.9091V33.6364H91.255V30.9091H99.1385ZM93.0447 27.7727H96.6754V39.9773C96.6754 40.3125 96.7266 40.5739 96.8288 40.7614C96.9311 40.9432 97.0732 41.071 97.255 41.1449C97.4425 41.2187 97.6584 41.2557 97.9027 41.2557C98.0732 41.2557 98.2436 41.2415 98.4141 41.2131C98.5845 41.179 98.7152 41.1534 98.8061 41.1364L99.3771 43.8381C99.1953 43.8949 98.9396 43.9602 98.6101 44.0341C98.2805 44.1136 97.88 44.1619 97.4084 44.179C96.5334 44.2131 95.7663 44.0966 95.1072 43.8295C94.4538 43.5625 93.9453 43.1477 93.5817 42.5852C93.218 42.0227 93.0391 41.3125 93.0447 40.4545V27.7727ZM105.237 44.2472C104.401 44.2472 103.657 44.1023 103.004 43.8125C102.35 43.517 101.833 43.0824 101.452 42.5085C101.077 41.929 100.89 41.2074 100.89 40.3438C100.89 39.6165 101.023 39.0057 101.29 38.5114C101.558 38.017 101.921 37.6193 102.381 37.3182C102.842 37.017 103.364 36.7898 103.95 36.6364C104.54 36.483 105.16 36.375 105.808 36.3125C106.569 36.233 107.183 36.1591 107.648 36.0909C108.114 36.017 108.452 35.9091 108.663 35.767C108.873 35.625 108.978 35.4148 108.978 35.1364V35.0852C108.978 34.5455 108.808 34.1278 108.467 33.8324C108.131 33.5369 107.654 33.3892 107.035 33.3892C106.381 33.3892 105.862 33.5341 105.475 33.8239C105.089 34.108 104.833 34.4659 104.708 34.8977L101.35 34.625C101.521 33.8295 101.856 33.142 102.356 32.5625C102.856 31.9773 103.501 31.5284 104.29 31.2159C105.086 30.8977 106.006 30.7386 107.052 30.7386C107.779 30.7386 108.475 30.8239 109.14 30.9943C109.81 31.1648 110.404 31.429 110.921 31.7869C111.444 32.1449 111.856 32.6051 112.157 33.1676C112.458 33.7244 112.609 34.392 112.609 35.1705V44H109.165V42.1847H109.063C108.853 42.5938 108.572 42.9545 108.219 43.267C107.867 43.5739 107.444 43.8153 106.95 43.9915C106.455 44.1619 105.884 44.2472 105.237 44.2472ZM106.276 41.7415C106.81 41.7415 107.282 41.6364 107.691 41.4261C108.1 41.2102 108.421 40.9205 108.654 40.5568C108.887 40.1932 109.004 39.7812 109.004 39.321V37.9318C108.89 38.0057 108.734 38.0739 108.535 38.1364C108.342 38.1932 108.123 38.2472 107.879 38.2983C107.634 38.3437 107.39 38.3864 107.146 38.4261C106.901 38.4602 106.68 38.4915 106.481 38.5199C106.055 38.5824 105.683 38.6818 105.364 38.8182C105.046 38.9545 104.799 39.1392 104.623 39.3722C104.447 39.5994 104.359 39.8835 104.359 40.2244C104.359 40.7188 104.538 41.0966 104.896 41.358C105.259 41.6136 105.719 41.7415 106.276 41.7415ZM115.425 44V30.9091H118.945V33.1932H119.082C119.32 32.3807 119.721 31.767 120.283 31.3523C120.846 30.9318 121.494 30.7216 122.227 30.7216C122.408 30.7216 122.604 30.733 122.815 30.7557C123.025 30.7784 123.21 30.8097 123.369 30.8494V34.071C123.198 34.0199 122.962 33.9744 122.661 33.9347C122.36 33.8949 122.085 33.875 121.835 33.875C121.3 33.875 120.823 33.9915 120.403 34.2244C119.988 34.4517 119.658 34.7699 119.414 35.179C119.175 35.5881 119.056 36.0597 119.056 36.5938V44H115.425ZM132.865 30.9091V33.6364H124.982V30.9091H132.865ZM126.771 27.7727H130.402V39.9773C130.402 40.3125 130.453 40.5739 130.555 40.7614C130.658 40.9432 130.8 41.071 130.982 41.1449C131.169 41.2187 131.385 41.2557 131.629 41.2557C131.8 41.2557 131.97 41.2415 132.141 41.2131C132.311 41.179 132.442 41.1534 132.533 41.1364L133.104 43.8381C132.922 43.8949 132.666 43.9602 132.337 44.0341C132.007 44.1136 131.607 44.1619 131.135 44.179C130.26 44.2131 129.493 44.0966 128.834 43.8295C128.18 43.5625 127.672 43.1477 127.308 42.5852C126.945 42.0227 126.766 41.3125 126.771 40.4545V27.7727Z" fill="#0038A8"/>
<path d="M41.75 25L50.5 46.375L41.75 41.875L33 46.375L41.75 25Z" fill="#0038A8" stroke="black" stroke-width="2" stroke-linecap="round" stroke-linejoin="round"/>
</svg>
